<svg xmlns="http://www.w3.org/2000/svg" width="48.927" height="48" viewBox="0 0 48.927 48">
  <g id="noun_event_1757908" transform="translate(-2.5 -3.4)" opacity="0.7">
    <g id="Group_9" data-name="Group 9" transform="translate(2.5 3.4)">
      <path id="Path_1" data-name="Path 1" d="M38.75,64.517a.841.841,0,0,0,1.236,0l10.3-10.3a.842.842,0,0,0,0-1.236l-2.936-2.936a.841.841,0,0,0-1.236,0l-6.747,6.8-3.5-3.5a.842.842,0,0,0-1.236,0l-2.884,2.936a.842.842,0,0,0,0,1.236Z" transform="translate(-16.552 -25.891)" fill="#fff"/>
      <path id="Path_2" data-name="Path 2" d="M43.393,12.4H41.487v2.524a4.172,4.172,0,1,1-8.343,0V12.4H20.732v2.524a4.172,4.172,0,1,1-8.343,0V12.4H10.483A8.023,8.023,0,0,0,2.5,20.383V47.73a8.034,8.034,0,0,0,7.983,8.034h32.91a8.045,8.045,0,0,0,8.034-8.034V20.383A8.034,8.034,0,0,0,43.393,12.4Zm3.863,35.33a3.857,3.857,0,0,1-3.863,3.863H10.483A3.814,3.814,0,0,1,6.672,47.73V27.078H47.255Z" transform="translate(-2.5 -7.765)" fill="#fff"/>
      <path id="Path_3" data-name="Path 3" d="M27.812,12.619a2.121,2.121,0,0,0,2.112-2.112v-5A2.121,2.121,0,0,0,27.812,3.4,2.089,2.089,0,0,0,25.7,5.512v5A2.155,2.155,0,0,0,27.812,12.619Z" transform="translate(-13.752 -3.4)" fill="#fff"/>
      <path id="Path_4" data-name="Path 4" d="M68.212,12.619a2.121,2.121,0,0,0,2.112-2.112v-5A2.121,2.121,0,0,0,68.212,3.4,2.089,2.089,0,0,0,66.1,5.512v5A2.089,2.089,0,0,0,68.212,12.619Z" transform="translate(-33.345 -3.4)" fill="#fff"/>
    </g>
  </g>
</svg>
