<svg xmlns="http://www.w3.org/2000/svg" width="45.381" height="50" viewBox="0 0 45.381 50">
  <g id="noun_note_3690119" transform="translate(-2.557 -0.38)" opacity="0.7">
    <g id="Layer_9" data-name="Layer 9" transform="translate(3.557 1.38)">
      <path id="Path_8" data-name="Path 8" d="M36.956,49.38H13.539A9.993,9.993,0,0,1,3.557,39.4V11.362A9.993,9.993,0,0,1,13.539,1.38H36.956a9.993,9.993,0,0,1,9.982,9.982V39.4A9.993,9.993,0,0,1,36.956,49.38ZM13.539,3.5a7.869,7.869,0,0,0-7.86,7.86V39.4a7.869,7.869,0,0,0,7.86,7.86H36.956a7.869,7.869,0,0,0,7.86-7.86V11.362a7.869,7.869,0,0,0-7.86-7.86Z" transform="translate(-3.557 -1.38)" fill="#fff" stroke="#fff" stroke-width="2"/>
      <path id="Path_9" data-name="Path 9" d="M24.783,20.235H19.13a1.061,1.061,0,0,1,0-2.122h5.653a1.061,1.061,0,0,1,0,2.122Z" transform="translate(-2.672 -0.359)" fill="#fff" stroke="#fff" stroke-width="2"/>
      <path id="Path_10" data-name="Path 10" d="M29.594,24.99H19.13a1.061,1.061,0,1,1,0-2.122H29.594a1.061,1.061,0,0,1,0,2.122Z" transform="translate(-2.672 -0.069)" fill="#fff" stroke="#fff" stroke-width="2"/>
      <path id="Path_11" data-name="Path 11" d="M29.594,30.009H19.13a1.061,1.061,0,1,1,0-2.122H29.594a1.061,1.061,0,0,1,0,2.122Z" transform="translate(-2.672 0.237)" fill="#fff" stroke="#fff" stroke-width="2"/>
      <path id="Path_12" data-name="Path 12" d="M44.511,41.744H5.343a1.061,1.061,0,0,1,0-2.122H44.511a1.061,1.061,0,0,1,0,2.122Z" transform="translate(-3.513 0.953)" fill="#fff" stroke="#fff" stroke-width="2"/>
    </g>
  </g>
</svg>
