<svg xmlns="http://www.w3.org/2000/svg" width="48" height="48" viewBox="0 0 48 48">
  <g id="noun_task_2580911" transform="translate(-2.09 -2)" opacity="0.7">
    <path id="Path_5" data-name="Path 5" d="M30.49,20.318a2.411,2.411,0,0,0-4.822,0,9.238,9.238,0,0,1-9.33,9.024,9.239,9.239,0,0,1-9.426-9.024,9.239,9.239,0,0,1,9.426-9.048,2.4,2.4,0,1,0,0-4.8A14.074,14.074,0,0,0,2.09,20.318,14.05,14.05,0,0,0,16.338,34.142,14.049,14.049,0,0,0,30.49,20.318Z" transform="translate(0 6.258)" fill="#fff"/>
    <path id="Path_6" data-name="Path 6" d="M9.407,18.671a2.407,2.407,0,1,0-3.4,3.408l5.135,5.112a2.416,2.416,0,0,0,1.712.72h.193a2.268,2.268,0,0,0,1.76-1.008L27.392,9.287a2.407,2.407,0,1,0-3.93-2.76L12.613,21.815Z" transform="translate(4.521 4.713)" fill="#fff"/>
    <path id="Path_7" data-name="Path 7" d="M44.984,2H6.411A2.4,2.4,0,0,0,4,4.4V9.608a2.411,2.411,0,0,0,4.822,0V6.8H42.574V45.2H8.822V42.8A2.411,2.411,0,0,0,4,42.8v4.8A2.4,2.4,0,0,0,6.411,50H44.984A2.4,2.4,0,0,0,47.4,47.6V4.4A2.4,2.4,0,0,0,44.984,2Z" transform="translate(2.695 0)" fill="#fff"/>
  </g>
</svg>
